<svg width="86" height="86" viewBox="0 0 86 86" fill="none" xmlns="http://www.w3.org/2000/svg">
<path d="M80.6249 75.2501H78.6092C78.431 75.2501 78.2601 75.1794 78.1341 75.0534C78.0081 74.9274 77.9374 74.7565 77.9374 74.5783V45.9413C77.9389 45.8344 77.9149 45.7287 77.8673 45.6329C77.8198 45.5372 77.7501 45.4541 77.664 45.3907C77.578 45.3273 77.478 45.2854 77.3725 45.2684C77.2669 45.2513 77.1588 45.2598 77.0572 45.2929C75.5159 45.7773 73.9153 46.0475 72.3003 46.0958C72.1021 46.0958 71.914 46.1042 71.7292 46.1042C68.623 46.1115 65.5668 45.3227 62.8521 43.8131C62.6466 43.6988 62.4153 43.6389 62.1802 43.6389C61.9451 43.6389 61.7138 43.6988 61.5083 43.8131C58.7942 45.3227 55.7385 46.1115 52.6329 46.1042C49.5446 46.1086 46.5082 45.3104 43.8212 43.7879C43.614 43.6706 43.3799 43.6089 43.1418 43.6089C42.9037 43.6089 42.6696 43.6706 42.4624 43.7879C39.735 45.3161 36.6594 46.1145 33.5331 46.1059C30.4241 46.1079 27.3686 45.2973 24.6694 43.7543C24.4606 43.6355 24.2244 43.573 23.9841 43.573C23.7438 43.573 23.5077 43.6355 23.2988 43.7543C20.5997 45.2973 17.5441 46.1079 14.4351 46.1059C14.252 46.1059 14.0672 46.1059 13.869 46.0975H13.859C12.1873 46.0473 10.5313 45.7594 8.94083 45.2425C8.84011 45.21 8.73312 45.2017 8.62858 45.2183C8.52405 45.235 8.42493 45.2761 8.3393 45.3383C8.25366 45.4005 8.18394 45.4821 8.13581 45.5764C8.08769 45.6706 8.06252 45.775 8.06235 45.8808V74.5783C8.06235 74.7565 7.99156 74.9274 7.86556 75.0534C7.73956 75.1794 7.56867 75.2501 7.39048 75.2501H5.45884C4.00759 75.2501 2.75454 76.3655 2.69071 77.8167C2.67437 78.1794 2.73169 78.5416 2.85921 78.8816C2.98672 79.2215 3.18179 79.5321 3.43263 79.7945C3.68348 80.057 3.9849 80.2659 4.31871 80.4087C4.65252 80.5514 5.0118 80.6251 5.37485 80.6251H80.5409C81.9921 80.6251 83.2452 79.5098 83.309 78.0586C83.3253 77.6959 83.268 77.3337 83.1405 76.9937C83.013 76.6538 82.8179 76.3432 82.5671 76.0808C82.3162 75.8183 82.0148 75.6094 81.681 75.4666C81.3472 75.3239 80.9879 75.2502 80.6249 75.2501V75.2501ZM37.6249 63.8283C37.6249 64.0065 37.5541 64.1774 37.4281 64.3034C37.3021 64.4294 37.1312 64.5001 36.953 64.5001H22.1717C21.9935 64.5001 21.8226 64.4294 21.6966 64.3034C21.5706 64.1774 21.4999 64.0065 21.4999 63.8283V53.0783C21.4999 52.5437 21.7122 52.031 22.0902 51.653C22.4682 51.275 22.9809 51.0626 23.5155 51.0626H35.6092C36.1438 51.0626 36.6565 51.275 37.0345 51.653C37.4125 52.031 37.6249 52.5437 37.6249 53.0783V63.8283ZM63.828 75.2501H51.7342C51.556 75.2501 51.3851 75.1794 51.2591 75.0534C51.1331 74.9274 51.0624 74.7565 51.0624 74.5783V53.0783C51.0624 52.5437 51.2747 52.031 51.6527 51.653C52.0307 51.275 52.5434 51.0626 53.078 51.0626H62.4842C63.0188 51.0626 63.5315 51.275 63.9095 51.653C64.2875 52.031 64.4999 52.5437 64.4999 53.0783V74.5783C64.4999 74.7565 64.4291 74.9274 64.3031 75.0534C64.1771 75.1794 64.0062 75.2501 63.828 75.2501Z" fill="black"/>
<path d="M82.7364 28.6017L75.5272 12.0585C73.6392 7.99867 69.3274 5.375 64.542 5.375H21.4496C16.6642 5.375 12.3525 7.99867 10.4645 12.0585L3.25527 28.6017C1.74355 31.862 3.7407 35.2096 3.74237 35.2113L3.78941 35.2869C3.87171 35.4179 4.01784 35.6228 4.10687 35.7538C4.11527 35.7639 4.12198 35.7757 4.13038 35.7874L4.97023 36.8036C5.00163 36.842 5.03528 36.8784 5.07101 36.9128L5.91085 37.7241L5.9814 37.7846C6.47461 38.2073 7.00218 38.5882 7.55862 38.9234V38.9318C9.38664 40.0391 11.4693 40.6564 13.6055 40.724H14.0204C17.2526 40.73 20.367 39.5111 22.7363 37.3126L22.7917 37.2605C23.0392 37.0274 23.3663 36.8975 23.7063 36.8975C24.0463 36.8975 24.3734 37.0274 24.6209 37.2605L24.6763 37.3126C27.0709 39.5073 30.2011 40.7248 33.4493 40.7248C36.6975 40.7248 39.8278 39.5073 42.2223 37.3126C42.4707 37.0826 42.7967 36.9549 43.1352 36.9549C43.4737 36.9549 43.7998 37.0826 44.0481 37.3126C46.4356 39.5004 49.5544 40.7172 52.7927 40.7244C56.031 40.7315 59.1551 39.5285 61.5522 37.3512C61.7969 37.1245 62.1181 36.9986 62.4516 36.9986C62.7852 36.9986 63.1064 37.1245 63.3511 37.3512C65.7507 39.5417 68.8885 40.7462 72.1376 40.724H72.5558C74.6384 40.6463 76.6647 40.0268 78.4347 38.9268C78.5943 38.831 78.7471 38.7302 78.9017 38.6295C80.0955 37.8247 81.1344 36.8113 81.9688 35.6379L82.261 35.1962C82.2901 35.1514 82.317 35.1043 82.3417 35.0551C82.6205 34.4873 84.1154 31.568 82.7364 28.6017V28.6017Z" fill="black"/>
</svg>
